<svg xmlns="http://www.w3.org/2000/svg" viewBox="0 0 92.18 35.23"><defs><style>.cls-1{fill:#cc2518;}.cls-2{fill:#eb674b;}</style></defs><title>アセット 2</title><g id="レイヤー_2" data-name="レイヤー 2"><g id="レイヤー_1-2" data-name="レイヤー 1"><path class="cls-1" d="M21.88,15.47,23.59,0H9.85L3.22,23.3A177.21,177.21,0,0,1,21.88,15.47Z"/><path class="cls-1" d="M2.17,26.57,0,34H8.68L12,23C8.18,24.16,4.88,25.47,2.17,26.57Z"/><path class="cls-1" d="M40.64,10,43.56,0H29.71L23.06,15.14A177.93,177.93,0,0,1,40.64,10Z"/><path class="cls-1" d="M12.8,22.82,12.31,34h8.32L28.2,18.89A146.79,146.79,0,0,0,12.8,22.82Z"/><path class="cls-1" d="M28.25,19,23.59,34h10L38.4,17.28C34.84,17.72,31.45,18.37,28.25,19Z"/><path class="cls-2" d="M38.4,17.6l2.23-7.75a178.55,178.55,0,0,0-17.57,5.06l-1.51,3.46.33-3.05A178.89,178.89,0,0,0,3.22,23.07l-1,3.7c2.72-1.09,6-2.3,9.83-3.5l.93-3.12L12.8,23A148.29,148.29,0,0,1,28.2,19.21l.13-.26-.08.25C31.45,18.58,34.84,18,38.4,17.6Z"/><path class="cls-1" d="M56.41,7.12l2-7.12H49L46.56,8.81C49.75,8.19,53,7.56,56.41,7.12Z"/><path class="cls-1" d="M53.73,16.54c-3.27.08-6.44,0-9.5.27L39.41,34h18l2.89-9h-9Z"/><path class="cls-2" d="M46.56,8.58,44.23,17q4.59-.39,9.5-.51L56.41,7C53,7.41,49.75,8,46.56,8.58Z"/><path class="cls-1" d="M90.18,6.47l2-6.47H82.63s-.77,2.48-1.82,5.93C83.89,6,87,6.16,90.18,6.47Z"/><path class="cls-1" d="M77.16,17.68c-.92,3-1.66,5.44-1.89,6.17-.77,2.46-2.77.92-2.46-.47S73.95,19,73.95,19H65.27s-.15.85-1.69,7.17,2.77,9.06,6.93,9.06,11.39-1.46,14-10.08l1.81-6C83.22,18.55,80.16,18.06,77.16,17.68Z"/><path class="cls-2" d="M77.16,17.68q4.5.57,9.16,1.43L90.18,6.32q-4.74-.47-9.38-.62Z"/></g></g></svg>